<svg id="Layer_1" data-name="Layer 1" xmlns="http://www.w3.org/2000/svg" viewBox="0 0 1439.5 892.89"><defs><style>.cls-1{fill:#364859;}</style></defs><title>geometric</title><rect class="cls-1" x="536.7" y="-486.54" width="21.47" height="1705.39" transform="translate(419.25 -279.85) rotate(45)"/><rect class="cls-1" x="59.01" y="360.6" width="21.47" height="1092.95" transform="translate(661.83 216.35) rotate(45)"/><rect class="cls-1" x="755.77" y="-482.62" width="20.2" height="1507.03" transform="translate(415.87 -462.21) rotate(45)"/><rect class="cls-1" x="816.4" y="360.7" width="21.47" height="1092.95" transform="translate(2053.49 963.77) rotate(135)"/><rect class="cls-1" x="365" y="-207.1" width="18.88" height="1453.27" transform="translate(1006.59 622.14) rotate(135)"/><rect class="cls-1" x="981.35" y="649.71" width="21.47" height="1092.95" transform="translate(2539.43 1340.51) rotate(135)"/><path class="cls-1" d="M1300.38,93.29c54.35-77.48,144.33-128.14,246.15-128.14C1712.47-34.85,1847,99.67,1847,265.61c0,101.83-50.66,191.81-128.14,246.15l20.67,20.67c82.58-59.83,136.29-157,136.29-266.82,0-181.85-147.42-329.28-329.28-329.28-109.77,0-207,53.72-266.82,136.29Z"/><path class="cls-1" d="M1700.42,523.7a299,299,0,0,1-153.89,42.37c-108.8,0-204.08-57.82-256.81-144.42l-20.92,20.92c58.48,91.59,161,152.32,277.73,152.32a327.69,327.69,0,0,0,174.86-50.22Z"/><path class="cls-1" d="M1246.1,261.79a299,299,0,0,1,42.34-150.07l-21-21a327.69,327.69,0,0,0-50.22,174.86c0,8.12.31,16.17.88,24.14Z"/><path class="cls-1" d="M1221.25,317a326.9,326.9,0,0,0,36.26,106.49l21.32-21.33a298.48,298.48,0,0,1-31.69-111.06Z"/></svg>