<?xml version="1.0" encoding="utf-8"?>
<!-- Generator: Adobe Illustrator 22.1.0, SVG Export Plug-In . SVG Version: 6.00 Build 0)  -->
<svg version="1.1" id="Layer_1" xmlns="http://www.w3.org/2000/svg" xmlns:xlink="http://www.w3.org/1999/xlink" x="0px" y="0px"
	 viewBox="0 0 788.8 282" style="enable-background:new 0 0 788.8 282;" xml:space="preserve">
<style type="text/css">
	.st0{fill:#FFFF00;}
	.st1{fill:#E2E2E2;}
</style>
<title>titles</title>
<g id="Layer_1_1_">
	<path class="st0" d="M40.1,15.3v139.2h-27V15.3H40.1z"/>
	<path class="st0" d="M98.6,122.7l-6.2,31.8H66.1L96.3,15.3h32.4l27,139.2h-26.2l-6-31.8H98.6z M121.1,101.7l-4.5-29.1
		c-1.5-8.5-3.3-22.3-4.5-31.6h-0.6c-1.4,9.3-3.5,23.8-5,31.8l-5.2,28.9H121.1z"/>
	<path class="st0" d="M245.8,105.8c-0.6-13.2-1.7-31.2-1.2-46H244c-2.5,14.9-6.2,32-8.9,42.7l-12,49.8h-19.2l-11.6-49
		c-2.7-11.2-6.4-28.5-8.5-43.6h-0.6c-0.4,15.1-1.2,32.6-2.1,46.5l-2.3,48.3h-23.3l10.1-139.2h28.5l11.2,50.4
		c3.9,17.6,7.4,33,9.9,48.7h0.4c2.1-15.5,5.2-31.2,8.9-48.7l10.9-50.4H264l8.5,139.2h-24.2L245.8,105.8z"/>
	<path class="st0" d="M301.4,126.9c5.6,3.1,15.1,5.4,22.9,5.4c12.8,0,19-6.6,19-15.7c0-10.1-6.2-15.1-18-22.7
		c-19-11.6-26.2-26.2-26.2-38.8c0-22.3,14.9-40.9,44-40.9c9.1,0,17.8,2.5,21.9,5l-4.3,23.3c-5.4-3.2-11.5-4.9-17.8-4.8
		c-11.6,0-17.1,7-17.1,14.5c0,8.3,4.1,12.6,19.2,21.7c18.4,11.1,25.2,25.1,25.2,39.8c0,25.4-18.8,42.1-46,42.1
		c-11.2,0-22.1-2.9-26.6-5.6L301.4,126.9z"/>
	<path class="st0" d="M397.6,122.7l-6.2,31.8h-26.2l30.1-139.2h32.4l27,139.2h-26.2l-6-31.8H397.6z M420.1,101.7l-4.5-29.1
		c-1.4-8.5-3.3-22.3-4.5-31.6h-0.6c-1.5,9.3-3.5,23.8-5,31.8l-5.2,28.9H420.1z"/>
	<path class="st0" d="M544.8,105.8c-0.6-13.2-1.7-31.2-1.2-46H543c-2.5,14.9-6.2,32-8.9,42.7l-12,49.8h-19.2l-11.5-49
		c-2.7-11.2-6.4-28.5-8.5-43.6h-0.6c-0.4,15.1-1.2,32.6-2.1,46.5l-2.3,48.3h-23.3l10.1-139.2h28.5l11.1,50.4
		c3.9,17.6,7.4,33,9.9,48.7h0.4c2.1-15.5,5.2-31.2,8.9-48.7l11-50.4h28.5l8.5,139.2h-24.2L544.8,105.8z"/>
	<path class="st0" d="M578.9,138.2c0-10.3,7.6-18,15.9-18c8.7,0,15.7,6.8,15.7,18c0,10.9-6.4,18-15.9,18
		C586.1,156.2,578.9,149.2,578.9,138.2z"/>
	<path class="st1" d="M758.7,273.3v-73.5c0-16.6-5-21.6-10.7-21.6c-6.4,0-10.9,4.5-10.9,21.6v73.5h-22v-69.6
		c0-29,10.9-44.8,32.7-44.8c23.7,0,32.9,16.3,32.9,44.6v69.8H758.7z"/>
	<path class="st1" d="M667.9,160.2l7.2,20.8c2.2,6.5,4,12.9,6,20.1h0.3c1.8-7.2,3.7-14.1,5.4-20.5l6-20.5h21.9l-21.1,57.9l20.3,55.2
		h-23l-6.5-21c-1.9-5.9-3.4-11.8-5.2-18.1h-0.3c-1.8,6.9-3.2,12.2-4.7,18.5l-5.7,20.6h-22l21.1-56.2l-22.3-56.9L667.9,160.2z"/>
	<path class="st1" d="M626.3,271.6c-7.3,1.6-14.8,2.3-22.3,2.2c-14.3,0-24.2-3.4-31.4-10.1c-9.7-8.7-14.8-23.7-14.8-45.6
		c0-22.8,5.9-39.1,15.8-47.8c7.5-7.4,18.8-10.9,34.6-10.9c6.1,0.1,12.1,0.4,18.1,1.2V271.6z M604.3,177.6c-1.3-0.3-2.6-0.4-3.9-0.3
		c-10.6,0-19.8,10.4-19.8,41.6c0,23.1,6,37.2,19.3,37.2c1.5,0.1,2.9-0.1,4.4-0.5V177.6z"/>
	<path class="st1" d="M504.5,209.9h25.8v-30.5h-29.2v-19.1h51.2v113.1h-49.2v-19.1h27.2v-26h-25.8V209.9z"/>
	<path class="st1" d="M497.1,182.7c-4.5-2.5-12.2-4.4-18.6-4.4c-10.4,0-15.4,5.4-15.4,12.8c0,8.2,5,12.2,14.6,18.4
		c15.4,9.4,21.3,21.3,21.3,31.6c0,18.1-12.1,33.2-35.7,33.2c-7.4,0-14.4-2-17.8-4l3.5-19c4.3,2.6,9.4,4,14.4,3.9
		c9.4,0,13.9-5.7,13.9-11.7c0-6.7-3.3-10.2-15.6-17.6c-14.9-9.1-20.5-20.5-20.5-32.4c0-20.6,15.3-34.2,37.4-34.2
		c9.1,0,18,2.4,21.6,4.5L497.1,182.7z"/>
	<path class="st1" d="M414.9,273.3V160.2h22v113.1H414.9z"/>
	<path class="st1" d="M340.9,163.2c4.9-2,15.3-4,23.5-4c12.9,0,22.7,3.7,30.2,11.2c9.7,9.4,14.9,26.2,14.6,45.6
		c-0.5,41.1-24,58.2-48,58.2c-8.6,0-14.9-1.7-18.5-3.4l3.9-19c3.2,1.7,7.4,2.5,12.9,2.5c14.9,0,26.8-10.2,26.8-39.8
		c0-27.2-10.6-36.9-20.8-36.9c-1.5-0.1-2.9,0.1-4.4,0.5v27.4h10.1v17.9h-30.4V163.2z"/>
	<path class="st1" d="M332.9,160.2v113.1h-20.1L295.3,229c-3.4-8.7-8.9-23.3-12.1-33.1h-0.3c0.7,11.9,2.2,31.6,2.2,52.4v25h-19.3
		V160.2h20.1l17.2,42.9c3.7,9.6,8.9,23.8,11.4,34.1h0.3c-0.5-11.4-1.3-28.9-1.3-51.5v-25.5H332.9z"/>
	<path class="st1" d="M206.8,209.9h25.8v-30.5h-29.2v-19.1h51.2v113.1h-49.2v-19.1h27.2v-26h-25.8V209.9z"/>
	<path class="st1" d="M196.9,271.6c-7.9,1.5-16,2.2-24,2.2c-12.1,0-22.8-1.7-30.2-8.4c-6.9-6.2-8.9-13.8-8.9-23.5
		c0-12.1,5.9-23,17.5-28.4v-0.3c-7.7-3-11.6-10.2-13.8-22.3c-2.2-12.6-5.2-26.5-7.2-30.7h23c1.3,3.2,3.8,14.6,5.5,27
		c2,14.1,5.5,18.1,12.9,18.1h3.2v-45.1h22L196.9,271.6z M174.9,222.3h-3.8c-9.6,0-15.1,7.7-15.1,17.6c0,9.6,3.9,16.4,13.8,16.8
		c1.8,0.1,3.5-0.2,5.2-0.7L174.9,222.3z"/>
</g>
</svg>
