<svg xmlns="http://www.w3.org/2000/svg" viewBox="0 0 272.09 1000"><defs><style>.cls-1{fill:#ff0;}.cls-2{fill:#e2e2e2;}</style></defs><title>titles</title><g id="Layer_1" data-name="Layer 1"><path class="cls-1" d="M6.18,959H145.37v27H6.18Z"/><path class="cls-1" d="M113.56,900.53l31.81,6.2V933L6.18,902.8V870.38l139.19-27v26.22l-31.81,6ZM92.5,878l-29.12,4.54c-8.47,1.45-22.3,3.31-31.6,4.55v.62c9.3,1.44,23.75,3.51,31.81,4.95l28.91,5.17Z"/><path class="cls-1" d="M96.63,753.29c-13.22.62-31.19,1.65-46,1.24v.62c14.86,2.48,32,6.19,42.74,8.88l49.77,12v19.2L94.15,806.78c-11.15,2.68-28.5,6.4-43.57,8.46v.62c15.07.42,32.63,1.24,46.46,2.07l48.33,2.27v23.34L6.18,833.42v-28.5l50.38-11.15c17.56-3.93,33.05-7.44,48.74-9.92v-.41c-15.49-2.06-31.18-5.16-48.74-8.88L6.18,763.62v-28.5l139.19-8.47v24.16Z"/><path class="cls-1" d="M117.69,697.74c3.1-5.58,5.37-15.07,5.37-22.92,0-12.81-6.61-19-15.69-19-10.12,0-15.08,6.19-22.72,18C73.09,692.78,58.42,700,45.83,700c-22.31,0-40.89-14.87-40.89-44,0-9.08,2.48-17.76,5-21.89l23.34,4.34a33.14,33.14,0,0,0-4.75,17.76c0,11.57,7,17.14,14.46,17.14,8.26,0,12.59-4.13,21.68-19.2C75.77,635.79,89.81,629,104.48,629c25.4,0,42.12,18.79,42.12,46,0,11.16-2.89,22.1-5.57,26.64Z"/><path class="cls-1" d="M113.56,601.51l31.81,6.19v26.23L6.18,603.78V571.35L145.37,544.3v26.23l-31.81,6ZM92.5,579l-29.12,4.54c-8.47,1.44-22.3,3.3-31.6,4.54v.62c9.3,1.45,23.75,3.51,31.81,5l28.91,5.16Z"/><path class="cls-1" d="M96.63,454.26c-13.22.62-31.19,1.66-46,1.24v.62c14.86,2.48,32,6.2,42.74,8.88l49.77,12v19.21L94.15,507.75c-11.15,2.69-28.5,6.4-43.57,8.47v.62c15.07.41,32.63,1.24,46.46,2.06l48.33,2.27v23.34L6.18,534.39v-28.5l50.38-11.15c17.56-3.92,33.05-7.43,48.74-9.91v-.41c-15.49-2.07-31.18-5.17-48.74-8.88l-50.38-11v-28.5l139.19-8.47v24.17Z"/><path class="cls-1" d="M129.05,420.19c-10.32,0-18-7.64-18-15.9,0-8.67,6.82-15.69,18-15.69,10.95,0,18,6.4,18,15.9C147,413,140,420.19,129.05,420.19Z"/><path class="cls-2" d="M264.13,240.41H190.64c-16.61,0-21.64,5-21.64,10.74,0,6.37,4.53,10.9,21.64,10.9h73.49v22H194.5c-29,0-44.8-10.9-44.8-32.72,0-23.65,16.28-32.88,44.63-32.88h69.8Z"/><path class="cls-2" d="M151.05,331.18l20.8-7.21c6.54-2.18,12.92-4,20.14-6v-.34c-7.22-1.84-14.1-3.69-20.47-5.37l-20.47-6V284.37l57.88,21.14,55.2-20.3v23l-21,6.54c-5.87,1.85-11.75,3.36-18.12,5.2v.34c6.88,1.84,12.25,3.19,18.46,4.7l20.63,5.7v22l-56.21-21.14-56.87,22.31Z"/><path class="cls-2" d="M262.46,372.8a101.15,101.15,0,0,1,2.18,22.31c0,14.26-3.36,24.16-10.07,31.38-8.73,9.73-23.66,14.76-45.64,14.76-22.82,0-39.09-5.87-47.82-15.77-7.38-7.55-10.9-18.79-10.9-34.56a164.56,164.56,0,0,1,1.17-18.12Zm-94,22a14.17,14.17,0,0,0-.34,3.86c0,10.57,10.4,19.79,41.61,19.79,23.15,0,37.25-6,37.25-19.29a12.53,12.53,0,0,0-.5-4.36Z"/><path class="cls-2" d="M200.71,494.61V468.77H170.17V498H151.05V446.79H264.13V496H245V468.77H219v25.84Z"/><path class="cls-2" d="M173.53,502c-2.52,4.53-4.36,12.25-4.36,18.62,0,10.4,5.37,15.44,12.75,15.44,8.22,0,12.25-5,18.45-14.6,9.4-15.44,21.31-21.31,31.55-21.31,18.12,0,33.22,12.08,33.22,35.74,0,7.38-2,14.43-4,17.78l-19-3.52A26.89,26.89,0,0,0,246,535.72c0-9.39-5.7-13.92-11.74-13.92-6.71,0-10.24,3.35-17.62,15.6-9.06,14.93-20.47,20.47-32.38,20.47-20.64,0-34.23-15.27-34.23-37.42,0-9.06,2.35-18,4.53-21.64Z"/><path class="cls-2" d="M264.13,584.21H151.05v-22H264.13Z"/><path class="cls-2" d="M154.07,658.21c-2-4.87-4-15.27-4-23.49,0-12.92,3.69-22.66,11.24-30.21,9.4-9.73,26.18-14.93,45.64-14.59,41.11.5,58.22,24,58.22,48,0,8.56-1.68,14.94-3.36,18.46l-19-3.86c1.68-3.19,2.52-7.38,2.52-12.92,0-14.93-10.23-26.84-39.76-26.84-27.19,0-36.92,10.57-36.92,20.8a13.16,13.16,0,0,0,.51,4.36h27.35V627.84h17.95v30.37Z"/><path class="cls-2" d="M151.05,666.26H264.13v20.13l-44.29,17.45c-8.73,3.36-23.32,8.9-33.06,12.09v.33c11.92-.67,31.55-2.18,52.35-2.18h25v19.3H151.05V713.24L194,696c9.56-3.69,23.82-8.89,34.06-11.41v-.34c-11.41.51-28.86,1.35-51.51,1.35h-25.5Z"/><path class="cls-2" d="M200.71,792.27V766.43H170.17v29.19H151.05V744.45H264.13v49.16H245V766.43H219v25.84Z"/><path class="cls-2" d="M262.46,802.17a131.6,131.6,0,0,1,2.18,24c0,12.09-1.68,22.82-8.39,30.21-6.21,6.88-13.76,8.89-23.49,8.89-12.08,0-23-5.87-28.36-17.45h-.33c-3,7.72-10.24,11.58-22.32,13.76-12.58,2.18-26.51,5.2-30.7,7.21v-23c3.18-1.34,14.59-3.85,27-5.53,14.09-2,18.12-5.54,18.12-12.92v-3.19H151.05v-22Zm-49.33,22V828c0,9.56,7.71,15.1,17.61,15.1,9.57,0,16.45-3.86,16.78-13.76a15.79,15.79,0,0,0-.67-5.2Z"/></g></svg>